<svg width="32" height="32" viewBox="0 0 32 32" fill="none" xmlns="http://www.w3.org/2000/svg">
<path opacity="0.975" fill-rule="evenodd" clip-rule="evenodd" d="M13.3436 4.21875C15.8053 4.03836 17.7324 4.95502 19.1249 6.96875C19.9223 8.33119 20.1723 9.7895 19.8749 11.3438C19.3763 13.3841 18.1575 14.8112 16.2186 15.625C13.6309 16.4547 11.4121 15.8818 9.56235 13.9062C8.1251 12.0113 7.83341 9.94875 8.68735 7.71875C9.63366 5.74094 11.1858 4.57427 13.3436 4.21875ZM15.4061 6.15625C15.5591 6.12563 15.6633 6.17771 15.7186 6.3125C15.3706 7.28362 15.0164 8.25238 14.6561 9.21875C14.6874 9.28125 14.7186 9.34375 14.7499 9.40625C15.5689 9.44737 16.3918 9.48906 17.2186 9.53125C17.2394 9.57294 17.2603 9.61456 17.2811 9.65625C15.709 11.2179 14.1257 12.77 12.5311 14.3125C12.3069 14.3507 12.234 14.2569 12.3124 14.0312C12.7707 13.1146 13.229 12.1979 13.6874 11.2812C13.7434 11.1234 13.7121 10.988 13.5936 10.875C12.9061 10.8542 12.2186 10.8333 11.5311 10.8125C11.4675 10.7469 11.4571 10.674 11.4999 10.5938C12.815 9.12262 14.117 7.64344 15.4061 6.15625Z" fill="#0DC4EC"/>
<path opacity="0.983" fill-rule="evenodd" clip-rule="evenodd" d="M3.53125 9.03125C4.78125 9.03125 6.03125 9.03125 7.28125 9.03125C6.97994 12.3562 8.29244 14.8041 11.2188 16.375C14.2224 17.5576 16.8787 17.0264 19.1875 14.7812C20.6221 13.1474 21.195 11.2515 20.9063 9.09375C22.1558 9.02087 23.4058 9.01044 24.6563 9.0625C25.0364 9.21344 25.3177 9.47387 25.5 9.84375C25.6036 14.8402 25.6244 19.8402 25.5625 24.8437C25.412 25.3068 25.1099 25.6297 24.6563 25.8125C17.6354 25.8542 10.6146 25.8542 3.59375 25.8125C3.07715 25.6501 2.75423 25.3063 2.625 24.7812C2.58333 19.8854 2.58333 14.9896 2.625 10.0937C2.76059 9.59387 3.06268 9.23969 3.53125 9.03125ZM6.96875 19.2187C11.8021 19.2083 16.6354 19.2187 21.4688 19.25C21.7931 19.4321 21.866 19.6925 21.6875 20.0312C21.5988 20.0912 21.5051 20.1433 21.4063 20.1875C16.6354 20.2292 11.8646 20.2292 7.09375 20.1875C6.56244 19.9269 6.52075 19.6041 6.96875 19.2187ZM6.96875 22.4062C11.8021 22.3958 16.6354 22.4062 21.4688 22.4375C21.7834 22.6258 21.8564 22.8862 21.6875 23.2187C21.6311 23.2938 21.5582 23.3459 21.4688 23.375C16.6563 23.4167 11.8438 23.4167 7.03125 23.375C6.55525 23.0844 6.53438 22.7615 6.96875 22.4062Z" fill="#0DC4EC"/>
<path opacity="0.965" fill-rule="evenodd" clip-rule="evenodd" d="M27.9062 11.1562C28.6382 11.0473 29.1069 11.339 29.3125 12.0312C29.3542 15.6354 29.3542 19.2396 29.3125 22.8438C28.9729 23.7371 28.3792 23.9559 27.5312 23.5C27.3769 23.3474 27.2624 23.1704 27.1875 22.9688C27.1562 22.4275 27.1459 21.8858 27.1562 21.3438C26.9688 21.3438 26.7812 21.3438 26.5938 21.3438C26.5938 18.7396 26.5938 16.1354 26.5938 13.5312C26.7812 13.5312 26.9688 13.5312 27.1562 13.5312C27.1459 12.9892 27.1562 12.4475 27.1875 11.9062C27.3137 11.5406 27.5533 11.2906 27.9062 11.1562Z" fill="#0DC4EC"/>
</svg>
