<svg width="16" height="17" viewBox="0 0 16 17" fill="none" xmlns="http://www.w3.org/2000/svg">
<g clip-path="url(#clip0_420_4823)">
<path d="M5.5549 14.497C5.5549 15.377 4.82157 16.097 3.92527 16.097C3.02898 16.097 2.30379 15.377 2.30379 14.497C2.30379 13.617 3.02898 12.897 3.92527 12.897C4.82157 12.897 5.5549 13.617 5.5549 14.497ZM12.0734 12.897C11.1771 12.897 10.4519 13.617 10.4519 14.497C10.4519 15.377 11.1771 16.097 12.0734 16.097C12.9697 16.097 13.7031 15.377 13.7031 14.497C13.7031 13.617 12.9697 12.897 12.0734 12.897ZM12.3961 8.89705C12.7668 8.89698 13.1264 8.77283 13.4156 8.54506C13.7047 8.3173 13.9062 7.99955 13.9866 7.64425L15.3327 2.49705H3.92527V1.69705C3.92527 1.2727 3.75358 0.865733 3.44797 0.565675C3.14235 0.265617 2.72785 0.0970459 2.29565 0.0970459H0.666016V1.69705H2.29565V10.497C2.29565 10.9214 2.46734 11.3284 2.77295 11.6284C3.07857 11.9285 3.49307 12.097 3.92527 12.097H13.7031C13.7031 11.6727 13.5314 11.2657 13.2257 10.9657C12.9201 10.6656 12.5056 10.497 12.0734 10.497H3.92527V8.89705H12.3961Z" fill="#F7F9FB"/>
</g>
<defs>
<clipPath id="clip0_420_4823">
<rect width="16" height="16" fill="white" transform="translate(0 0.0970459)"/>
</clipPath>
</defs>
</svg>
