<svg width="16" height="17" viewBox="0 0 16 17" fill="none" xmlns="http://www.w3.org/2000/svg">
<path fill-rule="evenodd" clip-rule="evenodd" d="M4.50016 5.83333C4.50016 4.82081 3.67935 4 2.66683 4C1.65431 4 0.833496 4.82081 0.833496 5.83333C0.833496 6.84586 1.65431 7.66667 2.66683 7.66667C3.67935 7.66667 4.50016 6.84586 4.50016 5.83333ZM4.50016 11.1667C4.50016 10.1541 3.67935 9.33333 2.66683 9.33333C1.65431 9.33333 0.833496 10.1541 0.833496 11.1667C0.833496 12.1792 1.65431 13 2.66683 13C3.67935 13 4.50016 12.1792 4.50016 11.1667ZM6.16683 4.5C6.16683 4.22386 6.39069 4 6.66683 4H10.6668C10.943 4 11.1668 4.22386 11.1668 4.5C11.1668 4.77614 10.943 5 10.6668 5H6.66683C6.39069 5 6.16683 4.77614 6.16683 4.5ZM6.66683 9.33333C6.39069 9.33333 6.16683 9.55719 6.16683 9.83333C6.16683 10.1095 6.39069 10.3333 6.66683 10.3333H10.6668C10.943 10.3333 11.1668 10.1095 11.1668 9.83333C11.1668 9.55719 10.943 9.33333 10.6668 9.33333H6.66683ZM6.16683 7.16667C6.16683 6.89052 6.39069 6.66667 6.66683 6.66667H14.6668C14.943 6.66667 15.1668 6.89052 15.1668 7.16667C15.1668 7.44281 14.943 7.66667 14.6668 7.66667H6.66683C6.39069 7.66667 6.16683 7.44281 6.16683 7.16667ZM6.66683 12C6.39069 12 6.16683 12.2239 6.16683 12.5C6.16683 12.7761 6.39069 13 6.66683 13H14.6668C14.943 13 15.1668 12.7761 15.1668 12.5C15.1668 12.2239 14.943 12 14.6668 12H6.66683Z" fill="#F7F9FB"/>
</svg>
