<svg width="32" height="32" viewBox="0 0 32 32" fill="none" xmlns="http://www.w3.org/2000/svg">
<g clip-path="url(#clip0_549_7018)">
<path opacity="0.991" fill-rule="evenodd" clip-rule="evenodd" d="M6.28149 4.59375C12.6149 4.58333 18.9482 4.59375 25.2815 4.625C27.3127 4.98958 28.5107 6.1875 28.8752 8.21875C28.9338 8.91513 28.8817 9.60263 28.719 10.2813C27.2021 10.5792 26.2334 11.4751 25.8127 12.9688C25.5399 14.4375 25.2274 15.8958 24.8752 17.3438C24.7582 17.4818 24.6227 17.5964 24.469 17.6875C21.6384 17.7598 18.8051 17.7911 15.969 17.7813C13.1329 17.7911 10.2996 17.7598 7.469 17.6875C7.19918 17.5428 7.02212 17.3241 6.93775 17.0313C6.66693 15.6771 6.39606 14.3229 6.12524 12.9688C5.61312 11.3783 4.52979 10.4408 2.87524 10.1563C2.33037 8.082 2.92412 6.42575 4.65649 5.1875C5.17296 4.897 5.71463 4.69908 6.28149 4.59375Z" fill="#0DC4EC"/>
<path opacity="0.983" fill-rule="evenodd" clip-rule="evenodd" d="M31.9688 13.2187C31.9688 13.7604 31.9688 14.3021 31.9688 14.8437C31.8285 16.4364 31.7139 18.0406 31.625 19.6562C31.2507 21.8639 29.9486 23.0826 27.7188 23.3125C19.8854 23.3542 12.0521 23.3542 4.21875 23.3125C1.98891 23.0826 0.686825 21.8639 0.3125 19.6562C0.223584 18.0406 0.109001 16.4364 -0.03125 14.8437C-0.03125 14.3021 -0.03125 13.7604 -0.03125 13.2187C0.471327 11.7286 1.51299 11.0515 3.09375 11.1875C4.00311 11.3761 4.65936 11.8866 5.0625 12.7187C5.42764 14.2527 5.76098 15.7944 6.0625 17.3437C6.31956 18.0799 6.83 18.5279 7.59375 18.6875C13.1771 18.7292 18.7604 18.7292 24.3438 18.6875C25.1075 18.5279 25.6179 18.0799 25.875 17.3437C26.1765 15.7944 26.5099 14.2527 26.875 12.7187C27.6334 11.3612 28.7689 10.8925 30.2812 11.3125C31.1477 11.6887 31.7102 12.3242 31.9688 13.2187Z" fill="#0DC4EC"/>
<path opacity="0.962" fill-rule="evenodd" clip-rule="evenodd" d="M3.90625 24.2812C4.94792 24.2812 5.98958 24.2812 7.03125 24.2812C6.88069 25.1127 6.66194 25.9252 6.375 26.7188C5.63851 27.4746 4.84684 27.5371 4 26.9062C3.74809 26.5987 3.61267 26.2445 3.59375 25.8438C3.68811 25.3206 3.79227 24.7997 3.90625 24.2812Z" fill="#0DC4EC"/>
<path opacity="0.962" fill-rule="evenodd" clip-rule="evenodd" d="M24.9062 24.2812C25.9479 24.2812 26.9896 24.2812 28.0312 24.2812C28.1453 24.7997 28.2494 25.3206 28.3438 25.8438C28.2801 26.7824 27.7801 27.2824 26.8438 27.3438C26.1051 27.3338 25.6155 26.9796 25.375 26.2812C25.1988 25.6181 25.0426 24.9515 24.9062 24.2812Z" fill="#0DC4EC"/>
</g>
<defs>
<clipPath id="clip0_549_7018">
<rect width="32" height="32" fill="white"/>
</clipPath>
</defs>
</svg>
