<svg width="32" height="32" viewBox="0 0 32 32" fill="none" xmlns="http://www.w3.org/2000/svg">
<path opacity="0.976" fill-rule="evenodd" clip-rule="evenodd" d="M20.0938 4.78125C22.4688 4.77083 24.8438 4.78125 27.2188 4.8125C26.2733 6.46369 25.3358 8.11994 24.4062 9.78125C22.9485 9.84375 21.4902 9.86456 20.0312 9.84375C20.0521 8.82206 20.0312 7.80125 19.9688 6.78125C19.8355 6.68019 19.6897 6.64894 19.5312 6.6875C19.1958 7.002 18.8833 7.33531 18.5938 7.6875C18.5417 7.7305 18.5001 7.72006 18.4688 7.65625C19.0112 6.69619 19.5528 5.73788 20.0938 4.78125Z" fill="#0DC4EC"/>
<path opacity="0.967" fill-rule="evenodd" clip-rule="evenodd" d="M19.4688 7.40625C19.5416 12.6249 19.552 17.8541 19.5 23.0938C18.5815 22.1961 17.6857 21.2794 16.8125 20.3438C16.7708 16.9479 16.7708 13.5521 16.8125 10.1562C17.6879 9.22881 18.5733 8.31213 19.4688 7.40625Z" fill="#0DC4EC"/>
<path opacity="0.976" fill-rule="evenodd" clip-rule="evenodd" d="M29.2187 8.53125C29.302 10.7496 29.3437 12.9892 29.3437 15.25C29.3229 17.4896 29.302 19.7292 29.2812 21.9688C27.7972 21.4185 26.318 20.856 24.8437 20.2812C24.7604 16.9271 24.7604 13.5729 24.8437 10.2188C26.318 9.679 27.7764 9.1165 29.2187 8.53125Z" fill="#0DC4EC"/>
<path opacity="0.979" fill-rule="evenodd" clip-rule="evenodd" d="M5.84375 10.2188C9.34375 10.2188 12.8438 10.2188 16.3438 10.2188C16.3438 13.5729 16.3438 16.9271 16.3438 20.2812C12.802 20.2917 9.26038 20.2812 5.71875 20.25C5.3206 20.1602 5.06019 19.9207 4.9375 19.5312C4.89583 16.6979 4.89583 13.8646 4.9375 11.0312C5.09525 10.5919 5.39733 10.3211 5.84375 10.2188ZM6.53125 11.7188C8.09375 11.7188 9.65625 11.7188 11.2188 11.7188C11.2188 11.8646 11.2188 12.0104 11.2188 12.1562C9.65625 12.1562 8.09375 12.1562 6.53125 12.1562C6.53125 12.0104 6.53125 11.8646 6.53125 11.7188ZM6.53125 13.5312C8.09375 13.5312 9.65625 13.5312 11.2188 13.5312C11.2188 13.6979 11.2188 13.8646 11.2188 14.0312C9.65625 14.0312 8.09375 14.0312 6.53125 14.0312C6.53125 13.8646 6.53125 13.6979 6.53125 13.5312Z" fill="#0DC4EC"/>
<path opacity="0.973" fill-rule="evenodd" clip-rule="evenodd" d="M20.0312 10.3438C21.4479 10.3438 22.8646 10.3438 24.2812 10.3438C24.2812 13.6354 24.2812 16.9271 24.2812 20.2188C22.8646 20.2188 21.4479 20.2188 20.0312 20.2188C20.0312 16.9271 20.0312 13.6354 20.0312 10.3438Z" fill="#0DC4EC"/>
<path opacity="0.957" fill-rule="evenodd" clip-rule="evenodd" d="M3.84375 11.3438C4.03125 11.3438 4.21875 11.3438 4.40625 11.3438C4.40625 13.9479 4.40625 16.5521 4.40625 19.1562C3.60183 19.3116 3.04975 19.02 2.75 18.2812C2.70833 16.2604 2.70833 14.2396 2.75 12.2188C2.94997 11.7089 3.31455 11.4172 3.84375 11.3438Z" fill="#0DC4EC"/>
<path opacity="0.975" fill-rule="evenodd" clip-rule="evenodd" d="M20.0312 20.7188C21.4897 20.7083 22.9481 20.7188 24.4062 20.75C25.4356 22.4146 26.4773 24.0708 27.5312 25.7188C25.1774 25.7917 22.8232 25.8021 20.4688 25.75C19.878 24.9104 19.3467 24.0458 18.875 23.1563C19.125 23.4063 19.375 23.6563 19.625 23.9063C19.7346 23.8358 19.8492 23.7733 19.9688 23.7188C20.0312 22.7196 20.0521 21.7196 20.0312 20.7188Z" fill="#0DC4EC"/>
<path opacity="0.947" fill-rule="evenodd" clip-rule="evenodd" d="M9.09421 20.7812C10.3234 20.7812 11.5525 20.7812 12.7817 20.7812C12.8103 21.5167 12.779 22.2459 12.688 22.9688C12.6315 23.0438 12.5587 23.0959 12.4692 23.125C11.4484 23.1667 10.4275 23.1667 9.40671 23.125C9.31728 23.0959 9.2444 23.0438 9.18796 22.9688C9.0969 22.2459 9.06565 21.5167 9.09421 20.7812Z" fill="#0DC4EC"/>
<path opacity="0.964" fill-rule="evenodd" clip-rule="evenodd" d="M9.59375 23.6562C10.4688 23.6562 11.3438 23.6562 12.2188 23.6562C12.2188 25.2812 12.2188 26.9062 12.2188 28.5312C11.3438 28.5312 10.4688 28.5312 9.59375 28.5312C9.59375 26.9062 9.59375 25.2812 9.59375 23.6562Z" fill="#0DC4EC"/>
</svg>
