<svg width="32" height="33" viewBox="0 0 32 33" fill="none" xmlns="http://www.w3.org/2000/svg">
<path fill-rule="evenodd" clip-rule="evenodd" d="M29.3346 16.1348C29.3346 23.4986 23.3651 29.4681 16.0013 29.4681C8.63751 29.4681 2.66797 23.4986 2.66797 16.1348C2.66797 8.77097 8.63751 2.80143 16.0013 2.80143C23.3651 2.80143 29.3346 8.77097 29.3346 16.1348ZM16.0013 9.80143C16.5536 9.80143 17.0013 10.2491 17.0013 10.8014V15.1348H21.3346C21.8869 15.1348 22.3346 15.5825 22.3346 16.1348C22.3346 16.687 21.8869 17.1348 21.3346 17.1348H17.0013V21.4681C17.0013 22.0204 16.5536 22.4681 16.0013 22.4681C15.449 22.4681 15.0013 22.0204 15.0013 21.4681V17.1348H10.668C10.1157 17.1348 9.66797 16.687 9.66797 16.1348C9.66797 15.5825 10.1157 15.1348 10.668 15.1348H15.0013V10.8014C15.0013 10.2491 15.449 9.80143 16.0013 9.80143Z" fill="url(#paint0_linear_376_2846)"/>
<defs>
<linearGradient id="paint0_linear_376_2846" x1="1.39813" y1="10.5936" x2="29.9987" y2="13.3175" gradientUnits="userSpaceOnUse">
<stop stop-color="#B637F2"/>
<stop offset="1" stop-color="#26C9ED"/>
</linearGradient>
</defs>
</svg>
