<svg width="32" height="28" viewBox="0 0 32 28" fill="none" xmlns="http://www.w3.org/2000/svg">
<path opacity="0.992" fill-rule="evenodd" clip-rule="evenodd" d="M31.9688 16.2187C31.9688 16.4479 31.9688 16.677 31.9688 16.9062C31.648 17.4822 31.1688 17.6593 30.5312 17.4375C29.9844 17.2761 29.4532 17.0782 28.9375 16.8437C28.9167 20.177 28.8958 23.5104 28.875 26.8437C28.7604 27.125 28.5625 27.3229 28.2812 27.4375C26.5312 27.4792 24.7812 27.4792 23.0312 27.4375C20.3038 25.1469 18.3976 22.3032 17.3125 18.9062C17.101 18.0778 16.9135 17.2445 16.75 16.4062C16.1837 15.7266 15.642 15.7474 15.125 16.4687C14.4104 20.9309 12.3166 24.5871 8.84375 27.4375C6.98956 27.4792 5.13542 27.4792 3.28125 27.4375C3 27.3229 2.80208 27.125 2.6875 26.8437C2.65625 23.573 2.64583 20.3021 2.65625 17.0312C2.08477 17.2355 1.50144 17.4022 0.90625 17.5312C0.457474 17.5189 0.144974 17.3105 -0.03125 16.9062C-0.03125 16.677 -0.03125 16.4479 -0.03125 16.2187C0.0549514 16.0384 0.179951 15.8821 0.34375 15.75C1.84517 15.2845 3.26183 14.6387 4.59375 13.8125C8.25288 11.5075 11.2216 8.51792 13.5 4.84374C14.2082 3.59421 14.7707 2.28171 15.1875 0.906237C15.5168 0.609662 15.9023 0.515912 16.3438 0.624987C16.5064 0.6802 16.6418 0.77395 16.75 0.906237C17.6568 3.74203 19.0943 6.26286 21.0625 8.46874C23.3758 11.0872 26.0737 13.2017 29.1562 14.8125C29.9499 15.1742 30.7624 15.4867 31.5938 15.75C31.7576 15.8821 31.8826 16.0384 31.9688 16.2187Z" fill="#0DC4EC"/>
</svg>
