<svg width="32" height="32" viewBox="0 0 32 32" fill="none" xmlns="http://www.w3.org/2000/svg">
<rect width="32" height="32" rx="16" fill="#F7F9FB"/>
<path fill-rule="evenodd" clip-rule="evenodd" d="M15.8333 10.5C12.8878 10.5 10.5 12.8878 10.5 15.8333C10.5 16.8411 10.78 17.785 11.2667 18.5898L10.7911 20.2068C10.6708 20.6158 11.0508 20.9959 11.4599 20.8756L13.0769 20.3999C13.8816 20.8867 14.8255 21.1667 15.8333 21.1667C18.7788 21.1667 21.1667 18.7788 21.1667 15.8333C21.1667 12.8878 18.7788 10.5 15.8333 10.5ZM14.627 17.0401C15.7057 18.1188 16.7357 18.261 17.0994 18.2743C17.6526 18.2947 18.1912 17.8723 18.4012 17.3822C18.4526 17.2622 18.4398 17.1179 18.3536 17.0074C18.0617 16.6336 17.6666 16.3658 17.2805 16.0991C17.1137 15.9837 16.8843 16.0195 16.7614 16.1829L16.441 16.671C16.4054 16.7251 16.3348 16.7437 16.2786 16.7116C16.0618 16.5876 15.7457 16.3763 15.5182 16.1489C15.2911 15.9217 15.0926 15.6199 14.9812 15.4171C14.9519 15.3637 14.9681 15.2979 15.0169 15.2616L15.5094 14.8958C15.6563 14.7687 15.6821 14.5527 15.574 14.3945C15.3347 14.0444 15.0558 13.5993 14.6523 13.3049C14.542 13.2245 14.4026 13.2155 14.2875 13.2648C13.7969 13.4751 13.3724 14.0135 13.3928 14.5677C13.4062 14.9314 13.5484 15.9614 14.627 17.0401Z" fill="#0DC4EC"/>
</svg>
