<svg width="32" height="32" viewBox="0 0 32 32" fill="none" xmlns="http://www.w3.org/2000/svg">
<rect width="32" height="32" rx="16" fill="#F7F9FB"/>
<path fill-rule="evenodd" clip-rule="evenodd" d="M15.9997 10.6667C16.57 10.6667 17.1541 10.6816 17.7208 10.7052L18.3904 10.7372L19.0313 10.775L19.6314 10.8163L20.1787 10.8586C21.404 10.958 22.3887 11.9063 22.5085 13.1407L22.5351 13.4237L22.5851 14.0304C22.6318 14.6592 22.6663 15.3449 22.6663 16C22.6663 16.6551 22.6318 17.3408 22.5851 17.9696L22.5351 18.5762C22.5263 18.6731 22.5174 18.7676 22.5085 18.8593C22.3887 20.0937 21.404 21.042 20.1787 21.1414L19.6314 21.1837L19.0313 21.2249L18.3904 21.2628L17.7208 21.2948C17.1541 21.3184 16.57 21.3333 15.9997 21.3333C15.4294 21.3333 14.8453 21.3184 14.2786 21.2948L13.6089 21.2628L12.968 21.2249L12.3679 21.1837L11.8207 21.1414C10.5953 21.042 9.61061 20.0937 9.49079 18.8593L9.46429 18.5762L9.41429 17.9696C9.36754 17.3408 9.33301 16.6551 9.33301 16C9.33301 15.3449 9.36754 14.6592 9.41429 14.0304L9.46429 13.4237C9.47303 13.3269 9.4819 13.2324 9.49079 13.1407C9.61061 11.9063 10.5953 10.958 11.8207 10.8586L12.3679 10.8163L12.968 10.775L13.6089 10.7372L14.2786 10.7052C14.8453 10.6816 15.4294 10.6667 15.9997 10.6667ZM14.6663 14.3834V17.6166C14.6663 17.9245 14.9997 18.1169 15.2663 17.963L18.0663 16.3464C18.333 16.1925 18.333 15.8075 18.0663 15.6536L15.2663 14.037C14.9997 13.883 14.6663 14.0755 14.6663 14.3834Z" fill="#0DC4EC"/>
</svg>
