<svg width="32" height="32" viewBox="0 0 32 32" fill="none" xmlns="http://www.w3.org/2000/svg">
<rect width="32" height="32" rx="16" fill="#F7F9FB"/>
<path fill-rule="evenodd" clip-rule="evenodd" d="M20.7564 11.0746C21.4059 10.79 22.1022 11.3614 21.9875 12.0849L20.633 20.63C20.5024 21.4539 19.6327 21.9266 18.9062 21.516C18.2982 21.1725 17.3963 20.6437 16.5834 20.091C16.1775 19.8151 14.9346 18.9302 15.0874 18.3003C15.218 17.7616 17.3075 15.738 18.5015 14.5345C18.9705 14.0617 18.7569 13.7886 18.203 14.2239C16.8289 15.3037 14.6229 16.9453 13.8934 17.4073C13.2497 17.8149 12.9137 17.8845 12.5128 17.8149C11.7808 17.688 11.1022 17.4915 10.5481 17.2525C9.79925 16.9295 9.83573 15.8588 10.5476 15.547L20.7564 11.0746Z" fill="#0DC4EC"/>
</svg>
