<svg width="32" height="32" viewBox="0 0 32 32" fill="none" xmlns="http://www.w3.org/2000/svg">
<rect width="32" height="32" rx="16" fill="#F7F9FB"/>
<path d="M22.3857 12.57C22.479 12.26 22.3857 12.0327 21.9443 12.0327H20.4823C20.1103 12.0327 19.9403 12.2293 19.847 12.4453C19.847 12.4453 19.1037 14.258 18.0503 15.4333C17.7103 15.7753 17.555 15.8833 17.3697 15.8833C17.277 15.8833 17.1423 15.7753 17.1423 15.4653V12.57C17.1423 12.198 17.035 12.0327 16.725 12.0327H14.4277C14.1957 12.0327 14.0557 12.2047 14.0557 12.3687C14.0557 12.7207 14.5823 12.802 14.6363 13.794V15.946C14.6363 16.4173 14.5517 16.5033 14.365 16.5033C13.8697 16.5033 12.6643 14.684 11.949 12.6013C11.8097 12.1967 11.669 12.0333 11.2957 12.0333H9.83434C9.41634 12.0333 9.33301 12.23 9.33301 12.446C9.33301 12.834 9.82834 14.754 11.6403 17.2933C12.8483 19.0273 14.549 19.9673 16.0983 19.9673C17.027 19.9673 17.1417 19.7587 17.1417 19.3987V18.088C17.1417 17.6707 17.2303 17.5867 17.5243 17.5867C17.7403 17.5867 18.1123 17.696 18.9797 18.5313C19.9703 19.522 20.1343 19.9667 20.691 19.9667H22.1523C22.5697 19.9667 22.7783 19.758 22.6583 19.346C22.527 18.936 22.0537 18.3393 21.4257 17.6333C21.0843 17.2307 20.5743 16.7973 20.419 16.5807C20.2023 16.3013 20.265 16.178 20.419 15.93C20.4197 15.9307 22.2003 13.4227 22.3857 12.57Z" fill="#0DC4EC"/>
</svg>
