<svg width="32" height="32" viewBox="0 0 32 32" fill="none" xmlns="http://www.w3.org/2000/svg">
<g clip-path="url(#clip0_549_6319)">
<path opacity="0.966" fill-rule="evenodd" clip-rule="evenodd" d="M10.7188 -0.03125C10.9896 -0.03125 11.2605 -0.03125 11.5313 -0.03125C12.1406 0.164147 12.5053 0.580814 12.625 1.21875C12.6667 11.0521 12.6667 20.8854 12.625 30.7188C12.5163 31.3372 12.1726 31.7538 11.5938 31.9688C11.2813 31.9688 10.9688 31.9688 10.6563 31.9688C10.0489 31.7459 9.70514 31.3084 9.62502 30.6562C9.58333 20.8646 9.58333 11.0729 9.62502 1.28125C9.72727 0.614966 10.0919 0.177466 10.7188 -0.03125Z" fill="#0DC4EC"/>
<path opacity="0.985" fill-rule="evenodd" clip-rule="evenodd" d="M15.7813 5.34375C16.6057 5.32331 17.1578 5.69831 17.4375 6.46875C17.4792 12.8021 17.4792 19.1354 17.4375 25.4687C17.033 26.4655 16.3142 26.7884 15.2813 26.4375C14.8806 26.2309 14.6201 25.908 14.5 25.4687C14.4583 19.1354 14.4583 12.8021 14.5 6.46875C14.7271 5.85575 15.1541 5.48075 15.7813 5.34375Z" fill="#0DC4EC"/>
<path opacity="0.984" fill-rule="evenodd" clip-rule="evenodd" d="M25.4688 5.34375C26.3272 5.31929 26.8793 5.71512 27.125 6.53125C27.1667 12.8229 27.1667 19.1146 27.125 25.4062C26.913 26.1335 26.4234 26.5294 25.6563 26.5938C24.9032 26.5564 24.4136 26.1814 24.1875 25.4688C24.1458 19.1354 24.1458 12.8021 24.1875 6.46875C24.3953 5.83952 24.8224 5.46452 25.4688 5.34375Z" fill="#0DC4EC"/>
<path opacity="0.982" fill-rule="evenodd" clip-rule="evenodd" d="M5.90625 8.09375C6.80656 7.96456 7.42113 8.31875 7.75 9.15625C7.79169 13.6979 7.79169 18.2396 7.75 22.7813C7.40894 23.6551 6.7735 23.9989 5.84375 23.8125C5.28036 23.6241 4.93661 23.2386 4.8125 22.6563C4.77083 18.1771 4.77083 13.6979 4.8125 9.21875C4.98021 8.64488 5.3448 8.26988 5.90625 8.09375Z" fill="#0DC4EC"/>
<path opacity="0.964" fill-rule="evenodd" clip-rule="evenodd" d="M20.4688 10.7812C21.4675 10.6912 22.0821 11.1287 22.3125 12.0937C22.3542 14.6562 22.3542 17.2187 22.3125 19.7812C22.0239 20.9935 21.2843 21.3997 20.0938 21C19.6405 20.7511 19.3801 20.3657 19.3125 19.8437C19.2708 17.2604 19.2708 14.6771 19.3125 12.0937C19.4455 11.4297 19.831 10.9922 20.4688 10.7812Z" fill="#0DC4EC"/>
<path opacity="0.968" fill-rule="evenodd" clip-rule="evenodd" d="M-0.03125 17.3438C-0.03125 16.4063 -0.03125 15.4688 -0.03125 14.5313C0.41577 13.6309 1.12411 13.3289 2.09375 13.625C2.46201 13.8058 2.72242 14.087 2.875 14.4688C2.94371 14.9651 2.97496 15.4651 2.96875 15.9688C2.97496 16.4724 2.94371 16.9724 2.875 17.4688C2.42305 18.3488 1.72513 18.63 0.78125 18.3125C0.35814 18.1089 0.0873063 17.7859 -0.03125 17.3438Z" fill="#0DC4EC"/>
<path opacity="0.968" fill-rule="evenodd" clip-rule="evenodd" d="M31.9685 14.5313C31.9685 15.4688 31.9685 16.4063 31.9685 17.3438C31.5729 18.3204 30.8645 18.6434 29.8435 18.3125C29.4753 18.1318 29.2149 17.8505 29.0623 17.4688C28.9936 16.9724 28.9624 16.4724 28.9685 15.9688C28.9624 15.4651 28.9936 14.9651 29.0623 14.4688C29.4515 13.6544 30.087 13.3523 30.9685 13.5625C31.1661 13.6508 31.3536 13.755 31.531 13.875C31.7016 14.0818 31.8474 14.3005 31.9685 14.5313Z" fill="#0DC4EC"/>
</g>
<defs>
<clipPath id="clip0_549_6319">
<rect width="32" height="32" fill="white"/>
</clipPath>
</defs>
</svg>
