<svg width="32" height="32" viewBox="0 0 32 32" fill="none" xmlns="http://www.w3.org/2000/svg">
<path opacity="0.997" fill-rule="evenodd" clip-rule="evenodd" d="M15.7495 1.9375C15.8957 1.9375 16.0418 1.9375 16.188 1.9375C20.7872 3.08731 25.3912 4.23831 30 5.3905C30 13.0456 30 20.7006 30 28.3557C27.7894 28.3557 25.5787 28.3557 23.368 28.3557C23.368 27.2595 23.368 26.1633 23.368 25.0671C23.9344 25.0671 24.5008 25.0671 25.0671 25.0671C25.0671 19.842 25.0671 14.6168 25.0671 9.3916C23.4046 9.3916 21.742 9.3916 20.0795 9.3916C20.0795 9.9397 20.0795 10.4878 20.0795 11.0359C20.6276 11.0359 21.1757 11.0359 21.7238 11.0359C21.7238 11.584 21.7238 12.1321 21.7238 12.6802C20.0795 12.6802 18.4352 12.6802 16.7909 12.6802C16.7909 12.1321 16.7909 11.584 16.7909 11.0359C17.339 11.0359 17.8871 11.0359 18.4352 11.0359C18.4352 10.4878 18.4352 9.9397 18.4352 9.3916C16.7909 9.3916 15.1466 9.3916 13.5023 9.3916C13.5023 9.9397 13.5023 10.4878 13.5023 11.0359C14.0504 11.0359 14.5985 11.0359 15.1466 11.0359C15.1466 11.584 15.1466 12.1321 15.1466 12.6802C13.5023 12.6802 11.858 12.6802 10.2137 12.6802C10.2137 12.1321 10.2137 11.584 10.2137 11.0359C10.7618 11.0359 11.3099 11.0359 11.858 11.0359C11.858 10.4878 11.858 9.9397 11.858 9.3916C10.1955 9.3916 8.5329 9.3916 6.87036 9.3916C6.87036 14.6168 6.87036 19.842 6.87036 25.0671C7.43673 25.0671 8.00311 25.0671 8.56946 25.0671C8.56946 26.1633 8.56946 27.2595 8.56946 28.3557C6.35881 28.3557 4.14815 28.3557 1.9375 28.3557C1.9375 20.7006 1.9375 13.0456 1.9375 5.3905C6.54627 4.23831 11.1503 3.08731 15.7495 1.9375ZM3.58179 9.3916C4.12988 9.3916 4.67798 9.3916 5.22607 9.3916C5.22607 10.7618 5.22607 12.1321 5.22607 13.5023C4.67798 13.5023 4.12988 13.5023 3.58179 13.5023C3.58179 12.1321 3.58179 10.7618 3.58179 9.3916ZM26.7114 9.3916C27.2595 9.3916 27.8076 9.3916 28.3557 9.3916C28.3557 10.7618 28.3557 12.1321 28.3557 13.5023C27.8076 13.5023 27.2595 13.5023 26.7114 13.5023C26.7114 12.1321 26.7114 10.7618 26.7114 9.3916ZM3.58179 15.1466C4.12988 15.1466 4.67798 15.1466 5.22607 15.1466C5.22607 16.5168 5.22607 17.8871 5.22607 19.2573C4.67798 19.2573 4.12988 19.2573 3.58179 19.2573C3.58179 17.8871 3.58179 16.5168 3.58179 15.1466ZM26.7114 15.1466C27.2595 15.1466 27.8076 15.1466 28.3557 15.1466C28.3557 16.5168 28.3557 17.8871 28.3557 19.2573C27.8076 19.2573 27.2595 19.2573 26.7114 19.2573C26.7114 17.8871 26.7114 16.5168 26.7114 15.1466ZM3.58179 20.9016C4.12988 20.9016 4.67798 20.9016 5.22607 20.9016C5.22607 22.2901 5.22607 23.6786 5.22607 25.0671C4.67798 25.0671 4.12988 25.0671 3.58179 25.0671C3.58179 23.6786 3.58179 22.2901 3.58179 20.9016ZM26.7114 20.9016C27.2595 20.9016 27.8076 20.9016 28.3557 20.9016C28.3557 22.2901 28.3557 23.6786 28.3557 25.0671C27.8076 25.0671 27.2595 25.0671 26.7114 25.0671C26.7114 23.6786 26.7114 22.2901 26.7114 20.9016Z" fill="#0DC4EC"/>
<path fill-rule="evenodd" clip-rule="evenodd" d="M21.7239 30C17.8872 30 14.0505 30 10.2139 30C10.2139 28.3557 10.2139 26.7114 10.2139 25.0671C14.0505 25.0671 17.8872 25.0671 21.7239 25.0671C21.7239 26.7114 21.7239 28.3557 21.7239 30Z" fill="#0DC4EC"/>
</svg>
