<svg width="77" height="15" viewBox="0 0 77 15" fill="none" xmlns="http://www.w3.org/2000/svg">
<path d="M5.76 11.105C4.93 11.105 4.195 10.97 3.555 10.7C2.925 10.42 2.395 10.04 1.965 9.56C1.535 9.08 1.205 8.51 0.975 7.85C0.755 7.19 0.645 6.47 0.645 5.69C0.645 4.9 0.76 4.175 0.99 3.515C1.22 2.845 1.55 2.27 1.98 1.79C2.42 1.31 2.955 0.934999 3.585 0.665C4.225 0.395 4.955 0.26 5.775 0.26C6.595 0.26 7.32 0.395 7.95 0.665C8.59 0.924999 9.125 1.295 9.555 1.775C9.995 2.255 10.325 2.83 10.545 3.5C10.775 4.16 10.89 4.885 10.89 5.675C10.89 6.455 10.775 7.18 10.545 7.85C10.325 8.51 9.995 9.08 9.555 9.56C9.125 10.04 8.59 10.42 7.95 10.7C7.31 10.97 6.58 11.105 5.76 11.105ZM5.775 1.82C5.205 1.82 4.71 1.925 4.29 2.135C3.88 2.345 3.535 2.625 3.255 2.975C2.975 3.325 2.765 3.735 2.625 4.205C2.495 4.675 2.43 5.165 2.43 5.675C2.43 6.185 2.495 6.675 2.625 7.145C2.765 7.605 2.97 8.015 3.24 8.375C3.52 8.735 3.87 9.02 4.29 9.23C4.71 9.44 5.205 9.545 5.775 9.545C6.335 9.545 6.825 9.445 7.245 9.245C7.665 9.035 8.01 8.755 8.28 8.405C8.56 8.055 8.765 7.65 8.895 7.19C9.035 6.72 9.105 6.22 9.105 5.69C9.105 5.17 9.035 4.68 8.895 4.22C8.765 3.75 8.56 3.34 8.28 2.99C8.01 2.63 7.665 2.345 7.245 2.135C6.835 1.925 6.345 1.82 5.775 1.82ZM18.6198 3.095V4.58H15.9498V11H14.2548V4.58H11.5848V3.095H18.6198ZM19.4532 11V3.095H26.3832V11H24.6732V4.58H21.1632V11H19.4532ZM29.8023 14.075H28.0923V3.095H29.7123L29.8023 4.22C30.0923 3.81 30.4673 3.5 30.9273 3.29C31.3973 3.07 31.8873 2.96 32.3973 2.96C32.9373 2.96 33.4223 3.06 33.8523 3.26C34.2823 3.45 34.6473 3.72 34.9473 4.07C35.2573 4.42 35.4873 4.845 35.6373 5.345C35.7973 5.835 35.8773 6.395 35.8773 7.025C35.8773 7.615 35.8023 8.16 35.6523 8.66C35.5023 9.16 35.2773 9.595 34.9773 9.965C34.6873 10.325 34.3223 10.605 33.8823 10.805C33.4523 11.005 32.9273 11.105 32.3073 11.105C31.8273 11.105 31.3673 11.03 30.9273 10.88C30.4973 10.72 30.1223 10.46 29.8023 10.1V14.075ZM32.0373 9.62C32.4073 9.62 32.7273 9.555 32.9973 9.425C33.2673 9.285 33.4873 9.1 33.6573 8.87C33.8373 8.64 33.9673 8.37 34.0473 8.06C34.1373 7.75 34.1823 7.415 34.1823 7.055C34.1823 6.695 34.1373 6.36 34.0473 6.05C33.9673 5.73 33.8373 5.455 33.6573 5.225C33.4873 4.995 33.2623 4.815 32.9823 4.685C32.7123 4.555 32.3873 4.49 32.0073 4.49C31.6673 4.49 31.3523 4.56 31.0623 4.7C30.7823 4.84 30.5473 5.025 30.3573 5.255C30.1673 5.485 30.0223 5.76 29.9223 6.08C29.8323 6.39 29.7873 6.71 29.7873 7.04C29.7873 7.4 29.8323 7.74 29.9223 8.06C30.0123 8.37 30.1473 8.64 30.3273 8.87C30.5173 9.09 30.7523 9.27 31.0323 9.41C31.3123 9.55 31.6473 9.62 32.0373 9.62ZM42.3294 10.025C42.0694 10.395 41.7244 10.67 41.2944 10.85C40.8644 11.02 40.3844 11.105 39.8544 11.105C39.4344 11.105 39.0494 11.055 38.6994 10.955C38.3594 10.855 38.0594 10.705 37.7994 10.505C37.5394 10.295 37.3344 10.04 37.1844 9.74C37.0344 9.43 36.9594 9.08 36.9594 8.69C36.9594 8.26 37.0444 7.895 37.2144 7.595C37.3844 7.285 37.6144 7.035 37.9044 6.845C38.2044 6.655 38.5544 6.515 38.9544 6.425C39.3544 6.325 39.7744 6.275 40.2144 6.275H42.2394C42.2394 5.695 42.1094 5.245 41.8494 4.925C41.5894 4.605 41.1344 4.44 40.4844 4.43C40.1044 4.43 39.7744 4.495 39.4944 4.625C39.2244 4.755 39.0444 4.97 38.9544 5.27H37.1994C37.2594 4.85 37.3944 4.495 37.6044 4.205C37.8244 3.915 38.0844 3.675 38.3844 3.485C38.6944 3.295 39.0344 3.16 39.4044 3.08C39.7844 3 40.1644 2.96 40.5444 2.96C41.0344 2.96 41.4894 3.025 41.9094 3.155C42.3294 3.285 42.6944 3.505 43.0044 3.815C43.3544 4.175 43.5894 4.605 43.7094 5.105C43.8294 5.605 43.8894 6.15 43.8894 6.74V11H42.4044L42.3294 10.025ZM42.2394 7.49H40.5894C40.2994 7.49 40.0094 7.515 39.7194 7.565C39.4294 7.605 39.1794 7.71 38.9694 7.88C38.7694 8.04 38.6694 8.275 38.6694 8.585C38.6694 8.965 38.8044 9.255 39.0744 9.455C39.3544 9.645 39.6944 9.74 40.0944 9.74C40.4044 9.74 40.6894 9.7 40.9494 9.62C41.2194 9.54 41.4494 9.41 41.6394 9.23C41.8294 9.04 41.9744 8.805 42.0744 8.525C42.1844 8.235 42.2394 7.89 42.2394 7.49ZM45.5755 3.095H48.9505C49.3005 3.095 49.6555 3.115 50.0155 3.155C50.3755 3.185 50.7005 3.27 50.9905 3.41C51.2905 3.55 51.5305 3.755 51.7105 4.025C51.9005 4.285 52.0005 4.64 52.0105 5.09C52.0105 5.44 51.9305 5.765 51.7705 6.065C51.6105 6.365 51.3555 6.61 51.0055 6.8C51.4855 6.93 51.8355 7.16 52.0555 7.49C52.2855 7.81 52.4005 8.195 52.4005 8.645C52.4005 9.065 52.3155 9.43 52.1455 9.74C51.9755 10.04 51.7505 10.285 51.4705 10.475C51.1905 10.655 50.8655 10.79 50.4955 10.88C50.1255 10.96 49.7355 11 49.3255 11H45.5755V3.095ZM47.3005 4.52V6.335H48.3355C48.5655 6.335 48.8005 6.335 49.0405 6.335C49.2905 6.325 49.5105 6.29 49.7005 6.23C49.9005 6.17 50.0605 6.075 50.1805 5.945C50.3105 5.815 50.3755 5.63 50.3755 5.39C50.3755 5.18 50.3255 5.02 50.2255 4.91C50.1355 4.79 50.0205 4.7 49.8805 4.64C49.7405 4.58 49.5805 4.545 49.4005 4.535C49.2305 4.525 49.0705 4.52 48.9205 4.52H47.3005ZM49.0405 9.56C49.2405 9.56 49.4355 9.55 49.6255 9.53C49.8255 9.51 50.0005 9.465 50.1505 9.395C50.3105 9.315 50.4405 9.215 50.5405 9.095C50.6405 8.965 50.6905 8.795 50.6905 8.585C50.6905 8.205 50.5705 7.95 50.3305 7.82C50.1005 7.69 49.8155 7.625 49.4755 7.625H47.3005V9.56H49.0405ZM55.4237 11H53.8337V3.095H55.5437V8.525L59.5637 3.095H61.1087V11H59.3987V5.675C59.3887 5.695 58.0637 7.47 55.4237 11ZM68.9893 3.095V4.58H66.3193V11H64.6243V4.58H61.9543V3.095H68.9893ZM69.8228 3.095H71.5328V5.765H73.3028C73.7628 5.765 74.1778 5.805 74.5478 5.885C74.9278 5.955 75.2528 6.09 75.5228 6.29C75.8028 6.49 76.0178 6.75 76.1678 7.07C76.3278 7.39 76.4078 7.785 76.4078 8.255C76.4078 8.785 76.3078 9.23 76.1078 9.59C75.9178 9.94 75.6628 10.22 75.3428 10.43C75.0328 10.64 74.6778 10.79 74.2778 10.88C73.8778 10.96 73.4728 11 73.0628 11H69.8228V3.095ZM72.8678 9.575C73.0978 9.575 73.3228 9.56 73.5428 9.53C73.7728 9.49 73.9678 9.43 74.1278 9.35C74.2978 9.26 74.4328 9.135 74.5328 8.975C74.6428 8.815 74.7028 8.605 74.7128 8.345C74.7128 8.065 74.6528 7.85 74.5328 7.7C74.4128 7.55 74.2628 7.44 74.0828 7.37C73.9028 7.3 73.7028 7.26 73.4828 7.25C73.2728 7.24 73.0778 7.235 72.8978 7.235H71.5328V9.56L72.8678 9.575Z" fill="url(#paint0_linear_201_611)"/>
<defs>
<linearGradient id="paint0_linear_201_611" x1="-3.71429" y1="3.38312" x2="64.0752" y2="36.9551" gradientUnits="userSpaceOnUse">
<stop stop-color="#B637F2"/>
<stop offset="1" stop-color="#26C9ED"/>
</linearGradient>
</defs>
</svg>
