<svg width="32" height="33" viewBox="0 0 32 33" fill="none" xmlns="http://www.w3.org/2000/svg">
<rect y="0.44043" width="32" height="32" rx="16" fill="#F7F9FB"/>
<path fill-rule="evenodd" clip-rule="evenodd" d="M20.7564 11.515C21.4059 11.2305 22.1022 11.8019 21.9875 12.5253L20.633 21.0704C20.5024 21.8943 19.6327 22.367 18.9062 21.9565C18.2982 21.6129 17.3963 21.0841 16.5834 20.5315C16.1775 20.2555 14.9346 19.3706 15.0874 18.7407C15.218 18.2021 17.3075 16.1784 18.5015 14.9749C18.9705 14.5022 18.7569 14.2291 18.203 14.6643C16.8289 15.7441 14.6229 17.3858 13.8934 17.8478C13.2497 18.2554 12.9137 18.3249 12.5128 18.2554C11.7808 18.1285 11.1022 17.9319 10.5481 17.693C9.79925 17.37 9.83573 16.2992 10.5476 15.9874L20.7564 11.515Z" fill="#0DC4EC"/>
</svg>
