<svg width="56" height="56" viewBox="0 0 56 56" fill="none" xmlns="http://www.w3.org/2000/svg">
<rect width="56" height="56" rx="28" fill="white"/>
<path fill-rule="evenodd" clip-rule="evenodd" d="M35.1347 20.6118C36.1089 20.185 37.1533 21.0422 36.9813 22.1273L34.9495 34.9449C34.7535 36.1808 33.449 36.8899 32.3592 36.2741C31.4474 35.7587 30.0944 34.9655 28.8751 34.1366C28.2663 33.7226 26.4019 32.3952 26.6311 31.4504C26.827 30.6425 29.9612 27.607 31.7522 25.8017C32.4557 25.0926 32.1353 24.683 31.3044 25.3359C29.2434 26.9555 25.9343 29.418 24.8401 30.111C23.8746 30.7224 23.3705 30.8268 22.7692 30.7224C21.6712 30.5321 20.6533 30.2373 19.8222 29.8788C18.6989 29.3943 18.7536 27.7882 19.8214 27.3205L35.1347 20.6118Z" fill="#0DC4EC"/>
</svg>
