<svg width="32" height="32" viewBox="0 0 32 32" fill="none" xmlns="http://www.w3.org/2000/svg">
<path opacity="0.98" fill-rule="evenodd" clip-rule="evenodd" d="M1.00977 9.60025C1.00977 9.0549 1.00977 8.50948 1.00977 7.96413C1.5908 5.0752 3.34378 3.40987 6.26872 2.96813C9.04556 2.86105 11.0225 4.05892 12.1996 6.56174C12.3635 7.0423 12.4999 7.52922 12.6087 8.02256C12.9719 5.8486 14.1503 4.30013 16.1439 3.37716C18.723 2.48569 20.9532 3.02133 22.8344 4.98406C24.4131 7.09781 24.6079 9.33771 23.4187 11.7038C21.9718 13.9024 19.9364 14.8276 17.3125 14.4794C14.6409 13.8529 13.073 12.1876 12.6087 9.48338C12.0464 12.3245 10.3421 14.0094 7.49581 14.5378C4.7188 14.7226 2.70287 13.5832 1.44801 11.1195C1.24585 10.6214 1.09977 10.115 1.00977 9.60025ZM6.32715 6.44488C7.80696 6.30253 8.73213 6.9453 9.10271 8.37316C9.21764 9.53632 8.75988 10.3836 7.72954 10.915C6.38798 11.3313 5.3654 10.932 4.66181 9.71712C4.18243 8.0852 4.73754 6.99444 6.32715 6.44488ZM17.8968 6.44488C19.3444 6.30597 20.2696 6.92923 20.6724 8.31473C20.8057 9.49939 20.348 10.3662 19.2992 10.915C17.9284 11.3411 16.9058 10.9223 16.2315 9.65868C15.8246 8.47139 16.1266 7.50725 17.1372 6.76626C17.385 6.62901 17.6383 6.52189 17.8968 6.44488Z" fill="#0DC4EC"/>
<path opacity="0.994" fill-rule="evenodd" clip-rule="evenodd" d="M10.4171 14.5087C11.8586 14.4989 13.2999 14.5087 14.7411 14.5379C16.9232 15.825 19.1631 15.9321 21.4609 14.8593C22.2356 15.2953 22.7128 15.9576 22.8925 16.846C22.9315 20.0792 22.9315 23.3126 22.8925 26.5458C22.5842 27.8864 21.7564 28.6947 20.4091 28.9708C15.2086 29.0098 10.0081 29.0098 4.80753 28.9708C3.48618 28.7012 2.65838 27.9124 2.32414 26.6043C2.28518 23.332 2.28518 20.0598 2.32414 16.7875C2.49297 15.9227 2.96043 15.2799 3.72653 14.8593C5.71004 15.8116 7.7065 15.8408 9.71589 14.9469C9.97527 14.8319 10.209 14.6858 10.4171 14.5087Z" fill="#0DC4EC"/>
<path opacity="0.987" fill-rule="evenodd" clip-rule="evenodd" d="M30.927 16.6123C30.927 20.0014 30.927 23.3905 30.927 26.7796C30.6642 27.6126 30.0993 27.934 29.2324 27.7437C27.4794 26.7309 25.7265 25.718 23.9735 24.7052C23.9347 23.7356 23.9152 22.7617 23.915 21.7836C23.9152 20.8055 23.9347 19.8316 23.9735 18.8619C25.7265 17.8491 27.4794 16.8362 29.2324 15.8234C30.0221 15.6217 30.587 15.8847 30.927 16.6123Z" fill="#0DC4EC"/>
</svg>
