<svg width="32" height="33" viewBox="0 0 32 33" fill="none" xmlns="http://www.w3.org/2000/svg">
<rect y="0.44043" width="32" height="32" rx="16" fill="#F7F9FB"/>
<path d="M22.3857 13.0105C22.479 12.7005 22.3857 12.4731 21.9443 12.4731H20.4823C20.1103 12.4731 19.9403 12.6698 19.847 12.8858C19.847 12.8858 19.1037 14.6985 18.0503 15.8738C17.7103 16.2158 17.555 16.3238 17.3697 16.3238C17.277 16.3238 17.1423 16.2158 17.1423 15.9058V13.0105C17.1423 12.6385 17.035 12.4731 16.725 12.4731H14.4277C14.1957 12.4731 14.0557 12.6451 14.0557 12.8091C14.0557 13.1611 14.5823 13.2425 14.6363 14.2345V16.3865C14.6363 16.8578 14.5517 16.9438 14.365 16.9438C13.8697 16.9438 12.6643 15.1245 11.949 13.0418C11.8097 12.6371 11.669 12.4738 11.2957 12.4738H9.83434C9.41634 12.4738 9.33301 12.6705 9.33301 12.8865C9.33301 13.2745 9.82834 15.1945 11.6403 17.7338C12.8483 19.4678 14.549 20.4078 16.0983 20.4078C17.027 20.4078 17.1417 20.1991 17.1417 19.8391V18.5285C17.1417 18.1111 17.2303 18.0271 17.5243 18.0271C17.7403 18.0271 18.1123 18.1365 18.9797 18.9718C19.9703 19.9625 20.1343 20.4071 20.691 20.4071H22.1523C22.5697 20.4071 22.7783 20.1985 22.6583 19.7865C22.527 19.3765 22.0537 18.7798 21.4257 18.0738C21.0843 17.6711 20.5743 17.2378 20.419 17.0211C20.2023 16.7418 20.265 16.6185 20.419 16.3705C20.4197 16.3711 22.2003 13.8631 22.3857 13.0105Z" fill="#0DC4EC"/>
</svg>
