<svg width="56" height="56" viewBox="0 0 56 56" fill="none" xmlns="http://www.w3.org/2000/svg">
<rect width="56" height="56" rx="28" fill="white"/>
<path fill-rule="evenodd" clip-rule="evenodd" d="M27.75 19.75C23.3317 19.75 19.75 23.3317 19.75 27.75C19.75 29.2617 20.17 30.6775 20.9 31.8846L20.1866 34.3102C20.0062 34.9238 20.5763 35.4938 21.1898 35.3134L23.6154 34.5999C24.8225 35.33 26.2383 35.75 27.75 35.75C32.1682 35.75 35.75 32.1682 35.75 27.75C35.75 23.3317 32.1682 19.75 27.75 19.75ZM25.9406 29.5602C27.5586 31.1782 29.1036 31.3914 29.6491 31.4115C30.4789 31.4421 31.2868 30.8084 31.6018 30.0734C31.679 29.8934 31.6597 29.6768 31.5304 29.5111C31.0926 28.9504 30.4998 28.5486 29.9207 28.1487C29.6705 27.9756 29.3264 28.0292 29.1421 28.2744L28.6615 29.0065C28.6082 29.0877 28.5022 29.1156 28.4178 29.0674C28.0926 28.8814 27.6185 28.5644 27.2774 28.2233C26.9366 27.8826 26.6389 27.4298 26.4718 27.1256C26.4278 27.0456 26.4522 26.9468 26.5254 26.8924L27.2642 26.3438C27.4845 26.153 27.5232 25.8291 27.361 25.5918C27.002 25.0666 26.5838 24.399 25.9784 23.9574C25.8131 23.8368 25.6039 23.8233 25.4312 23.8973C24.6954 24.2126 24.0586 25.0203 24.0892 25.8516C24.1093 26.3971 24.3226 27.9422 25.9406 29.5602Z" fill="#0DC4EC"/>
</svg>
