<svg width="32" height="33" viewBox="0 0 32 33" fill="none" xmlns="http://www.w3.org/2000/svg">
<rect y="0.44043" width="32" height="32" rx="16" fill="#F7F9FB"/>
<path fill-rule="evenodd" clip-rule="evenodd" d="M15.8333 10.9404C12.8878 10.9404 10.5 13.3282 10.5 16.2738C10.5 17.2815 10.78 18.2254 11.2667 19.0302L10.7911 20.6472C10.6708 21.0563 11.0508 21.4363 11.4599 21.316L13.0769 20.8404C13.8816 21.3271 14.8255 21.6071 15.8333 21.6071C18.7788 21.6071 21.1667 19.2193 21.1667 16.2738C21.1667 13.3282 18.7788 10.9404 15.8333 10.9404ZM14.627 17.4805C15.7057 18.5592 16.7357 18.7014 17.0994 18.7148C17.6526 18.7352 18.1912 18.3127 18.4012 17.8227C18.4526 17.7027 18.4398 17.5583 18.3536 17.4478C18.0617 17.074 17.6666 16.8062 17.2805 16.5396C17.1137 16.4242 16.8843 16.4599 16.7614 16.6234L16.441 17.1114C16.4054 17.1655 16.3348 17.1842 16.2786 17.152C16.0618 17.0281 15.7457 16.8167 15.5182 16.5893C15.2911 16.3621 15.0926 16.0603 14.9812 15.8575C14.9519 15.8042 14.9681 15.7383 15.0169 15.702L15.5094 15.3363C15.6563 15.2091 15.6821 14.9932 15.574 14.835C15.3347 14.4848 15.0558 14.0397 14.6523 13.7454C14.542 13.665 14.4026 13.6559 14.2875 13.7053C13.7969 13.9155 13.3724 14.454 13.3928 15.0081C13.4062 15.3718 13.5484 16.4019 14.627 17.4805Z" fill="#0DC4EC"/>
</svg>
