<svg width="32" height="33" viewBox="0 0 32 33" fill="none" xmlns="http://www.w3.org/2000/svg">
<rect y="0.44043" width="32" height="32" rx="16" fill="#F7F9FB"/>
<path fill-rule="evenodd" clip-rule="evenodd" d="M15.9997 11.1069C16.57 11.1069 17.1541 11.1219 17.7208 11.1454L18.3904 11.1775L19.0313 11.2153L19.6314 11.2566L20.1787 11.2988C21.404 11.3983 22.3887 12.3465 22.5085 13.581L22.5351 13.864L22.5851 14.4706C22.6318 15.0995 22.6663 15.7852 22.6663 16.4403C22.6663 17.0954 22.6318 17.7811 22.5851 18.4099L22.5351 19.0165C22.5263 19.1134 22.5174 19.2079 22.5085 19.2995C22.3887 20.534 21.404 21.4823 20.1787 21.5817L19.6314 21.6239L19.0313 21.6652L18.3904 21.7031L17.7208 21.7351C17.1541 21.7586 16.57 21.7736 15.9997 21.7736C15.4294 21.7736 14.8453 21.7586 14.2786 21.7351L13.6089 21.7031L12.968 21.6652L12.3679 21.6239L11.8207 21.5817C10.5953 21.4823 9.61061 20.534 9.49079 19.2995L9.46429 19.0165L9.41429 18.4099C9.36754 17.7811 9.33301 17.0954 9.33301 16.4403C9.33301 15.7852 9.36754 15.0995 9.41429 14.4706L9.46429 13.864C9.47303 13.7672 9.4819 13.6727 9.49079 13.581C9.61061 12.3465 10.5953 11.3983 11.8207 11.2988L12.3679 11.2566L12.968 11.2153L13.6089 11.1775L14.2786 11.1454C14.8453 11.1219 15.4294 11.1069 15.9997 11.1069ZM14.6663 14.8237V18.0569C14.6663 18.3648 14.9997 18.5572 15.2663 18.4033L18.0663 16.7867C18.333 16.6327 18.333 16.2478 18.0663 16.0939L15.2663 14.4773C14.9997 14.3233 14.6663 14.5158 14.6663 14.8237Z" fill="#0DC4EC"/>
</svg>
