<svg width="94" height="78" viewBox="0 0 94 78" fill="none" xmlns="http://www.w3.org/2000/svg">
<path opacity="0.986" fill-rule="evenodd" clip-rule="evenodd" d="M44.7727 0.9141C53.0245 0.475256 58.8248 4.0029 62.1734 11.497C64.5725 19.4458 62.5035 25.9244 55.9662 30.9329C49.8606 34.5962 43.7551 34.5962 37.6496 30.9329C31.7946 26.5772 29.5221 20.777 30.8318 13.5322C32.8859 6.42256 37.5328 2.21653 44.7727 0.9141Z" fill="#E9EEF0"/>
<path opacity="0.978" fill-rule="evenodd" clip-rule="evenodd" d="M16.2804 9.66535C19.6899 9.20031 22.8106 9.91262 25.6422 11.8023C24.531 17.6577 25.413 23.2204 28.2879 28.4907C25.9696 31.8386 22.7474 33.5685 18.6208 33.6804C12.4259 33.2494 8.49118 30.0611 6.81683 24.1151C5.99506 16.6631 9.14958 11.8464 16.2804 9.66535Z" fill="#E9EEF0"/>
<path opacity="0.978" fill-rule="evenodd" clip-rule="evenodd" d="M72.8602 9.66528C80.0377 9.06226 84.6846 12.1828 86.8012 19.0271C87.7288 26.437 84.6423 31.2196 77.5411 33.3751C72.7859 34.2097 68.8173 32.8191 65.6354 29.203C65.5055 28.9773 65.4038 28.74 65.3301 28.4906C68.2276 23.2678 69.0756 17.7388 67.874 11.904C69.4116 10.8463 71.0735 10.1 72.8602 9.66528Z" fill="#E9EEF0"/>
<path opacity="0.979" fill-rule="evenodd" clip-rule="evenodd" d="M15.8744 35.7156C20.0748 35.2328 24.0094 36.0129 27.6784 38.056C23.6249 41.8534 21.0809 46.5006 20.0465 51.9969C19.441 55.9973 18.8644 59.9999 18.3166 64.0045C13.7408 64.1408 9.33121 63.3605 5.08793 61.664C3.53648 60.9055 2.14579 59.9217 0.915828 58.713C0.371256 58.0294 0.0659803 57.2493 0 56.3726C0.418065 53.0151 1.13038 49.7251 2.13693 46.502C4.90223 40.5806 9.48137 36.9853 15.8744 35.7156Z" fill="#E9EEF0"/>
<path opacity="0.99" fill-rule="evenodd" clip-rule="evenodd" d="M41.722 35.7156C45.1147 35.6816 48.5067 35.7156 51.8979 35.8174C59.391 37.0719 64.7842 41.1082 68.0776 47.9267C68.7166 49.4368 69.1914 50.9969 69.5022 52.6076C70.3394 58.1288 71.1195 63.6576 71.8426 69.1942C71.9151 70.4701 71.4403 71.4877 70.418 72.247C67.7338 73.9566 64.8168 75.1097 61.6668 75.7068C51.7626 77.4707 41.858 77.4707 31.9532 75.7068C29.0659 75.1292 26.3524 74.1116 23.8125 72.654C22.5029 71.8656 21.8246 70.7125 21.7773 69.1942C22.5004 63.6576 23.2805 58.1288 24.1178 52.6076C25.7628 44.9922 30.2062 39.7345 37.4482 36.835C38.8757 36.3679 40.3003 35.9949 41.722 35.7156Z" fill="#E9EEF0"/>
<path opacity="0.979" fill-rule="evenodd" clip-rule="evenodd" d="M72.2485 35.7156C81.1243 35.0127 87.5351 38.608 91.4809 46.502C92.4765 49.6932 93.1888 52.9495 93.6178 56.2709C93.3748 58.0099 92.493 59.3328 90.9721 60.2395C88.2914 61.925 85.3743 63.0104 82.2208 63.4957C79.927 63.8429 77.6205 64.0127 75.3013 64.0045C74.7534 59.9999 74.1768 55.9973 73.5714 51.997C72.5369 46.5006 69.9929 41.8535 65.9395 38.0561C67.9333 36.9286 70.0365 36.1483 72.2485 35.7156Z" fill="#E9EEF0"/>
</svg>
