<svg width="97" height="105" viewBox="0 0 97 105" fill="none" xmlns="http://www.w3.org/2000/svg">
<path d="M25.9809 58.2252L23.563 55.8072C21.7843 54.0285 18.9078 54.0285 17.1291 55.8072C15.3503 57.5859 15.3503 60.4625 17.1291 62.2412L22.3679 67.4801C23.3546 68.4667 23.3546 70.0787 22.3679 71.0792C21.3813 72.0658 19.7694 72.0658 18.7688 71.0792L11.5428 63.8532C10.2643 62.5747 9.54173 60.8238 9.54173 59.0173V45.4407C9.54173 42.9254 7.49896 40.8827 4.98374 40.8827C2.46853 40.8827 0.425781 42.9254 0.425781 45.4407V60.1984C0.425781 63.6725 1.80152 67.0076 4.26115 69.4672L22.1456 87.3517C24.6052 89.8113 25.9809 93.1464 25.9809 96.6205V105H38.5431V76.2347C38.5431 72.7606 37.1674 69.4255 34.7078 66.9659L25.9809 58.2391V58.2252Z" fill="#E9EEF0"/>
<path d="M70.9352 58.2251L73.3532 55.8071C75.1319 54.0284 78.0084 54.0284 79.7871 55.8071C81.5659 57.5858 81.5659 60.4623 79.7871 62.2411L74.5482 67.4799C73.5616 68.4666 73.5616 70.0785 74.5482 71.0791C75.5349 72.0657 77.1468 72.0657 78.1474 71.0791L85.3734 63.853C86.6519 62.5746 87.3745 60.8236 87.3745 59.0171V45.4405C87.3745 42.9253 89.4172 40.8826 91.9324 40.8826C94.4477 40.8826 96.4904 42.9253 96.4904 45.4405V60.1983C96.4904 63.6724 95.1147 67.0075 92.655 69.4671L74.7706 87.3515C72.3109 89.8112 70.9352 93.1463 70.9352 96.6203V105H58.373V76.2346C58.373 72.7605 59.7488 69.4254 62.2084 66.9658L70.9352 58.2389V58.2251Z" fill="#E9EEF0"/>
<path d="M70.9784 12.5483L48.4526 0L25.9268 12.5483L24.4121 13.396V41.5358L46.9379 54.0563L48.4526 54.904L49.9673 54.0563L72.4931 41.5358V13.396L70.9784 12.5483ZM48.4526 3.47406L67.8517 14.2853L52.5659 22.7898L48.4665 25.0688L44.3671 22.7898L29.0812 14.2853L48.4804 3.47406H48.4526ZM46.9379 50.5823L27.4554 39.7571V16.87L42.8385 25.4301L46.9379 27.7091V50.5823ZM69.4637 16.87V39.7571L49.9812 50.5823V27.7091L54.0805 25.4301L69.4637 16.87Z" fill="#E9EEF0"/>
</svg>
